<svg width="69" height="82" viewBox="0 0 69 82" fill="none" xmlns="http://www.w3.org/2000/svg">
<path d="M57.0565 22.4845C68.0911 29.4718 69 43.3888 69 50.1994V82H51.8916V50.1994C51.8916 48.6593 51.8916 46.4502 51.4073 44.1308H51.8208L60.6724 28.7625L57.0565 22.4845Z" fill="#E7A90A"/>
<path d="M30.6556 19.4049C26.8566 20.3903 23.814 21.9875 21.3923 24.0416L27.985 24.0416L30.6556 19.4049Z" fill="#E7A90A"/>
<path d="M47.6404 37.0325C45.2912 34.8408 41.6438 33.2773 35.981 33.1694L33.4428 28.7625L38.206 20.4925L47.7324 20.4925L52.4957 28.7625L47.7324 37.0325H47.6404Z" fill="#E7A90A"/>
<path d="M17.2217 24.0416V0H0V13.3941L9.33313 13.3941L15.4657 24.0416H17.2217Z" fill="#E7A90A"/>
<path d="M28.1897 34.0935C20.911 36.2465 18.1677 41.8372 17.4382 47.68H16.9622L12.1989 39.41L16.9622 31.14H26.4886L28.1897 34.0935Z" fill="#E7A90A"/>
<path d="M17.2217 54.7783V82H0V65.4258H9.33313L15.4657 54.7783H17.2217Z" fill="#E7A90A"/>
<path d="M5.24475 58.3275H0V44.1308H6.59444L10.008 50.0575L5.24475 58.3275Z" fill="#E7A90A"/>
<path d="M0 34.6891H6.59444L10.008 28.7625L5.24475 20.4925L0 20.4925V34.6891Z" fill="#E7A90A"/>
</svg>
