<svg width="11" height="12" viewBox="0 0 11 12" fill="none" xmlns="http://www.w3.org/2000/svg">
<path d="M4.68734 10.3332C4.68734 10.5487 4.77294 10.7553 4.92531 10.9077C5.07769 11.0601 5.28435 11.1457 5.49984 11.1457C5.71533 11.1457 5.92199 11.0601 6.07436 10.9077C6.22674 10.7553 6.31234 10.5487 6.31234 10.3332V6.81234H9.83317C10.0487 6.81234 10.2553 6.72674 10.4077 6.57436C10.5601 6.42199 10.6457 6.21533 10.6457 5.99984C10.6457 5.78435 10.5601 5.57769 10.4077 5.42531C10.2553 5.27294 10.0487 5.18734 9.83317 5.18734H6.31234V1.6665C6.31234 1.45102 6.22674 1.24435 6.07436 1.09198C5.92199 0.939606 5.71533 0.854004 5.49984 0.854004C5.28435 0.854004 5.07769 0.939606 4.92531 1.09198C4.77294 1.24435 4.68734 1.45102 4.68734 1.6665V5.18734H1.1665C0.951016 5.18734 0.744353 5.27294 0.59198 5.42531C0.439606 5.57769 0.354004 5.78435 0.354004 5.99984C0.354004 6.21533 0.439606 6.42199 0.59198 6.57436C0.744353 6.72674 0.951016 6.81234 1.1665 6.81234H4.68734V10.3332Z" fill="#FCFCFC"/>
</svg>
