<svg width="34" height="34" viewBox="0 0 34 34" fill="none" xmlns="http://www.w3.org/2000/svg">
<circle cx="17" cy="17" r="17" fill="#E7A90A"/>
<path d="M17 17.5C16.337 17.5 15.7011 17.2366 15.2322 16.7678C14.7634 16.2989 14.5 15.663 14.5 15C14.5 14.337 14.7634 13.7011 15.2322 13.2322C15.7011 12.7634 16.337 12.5 17 12.5C17.663 12.5 18.2989 12.7634 18.7678 13.2322C19.2366 13.7011 19.5 14.337 19.5 15C19.5 15.3283 19.4353 15.6534 19.3097 15.9567C19.1841 16.26 18.9999 16.5356 18.7678 16.7678C18.5356 16.9999 18.26 17.1841 17.9567 17.3097C17.6534 17.4353 17.3283 17.5 17 17.5ZM17 8C15.1435 8 13.363 8.7375 12.0503 10.0503C10.7375 11.363 10 13.1435 10 15C10 20.25 17 28 17 28C17 28 24 20.25 24 15C24 13.1435 23.2625 11.363 21.9497 10.0503C20.637 8.7375 18.8565 8 17 8Z" fill="white"/>
</svg>
