<svg width="6" height="17" viewBox="0 0 6 17" fill="none" xmlns="http://www.w3.org/2000/svg">
<path d="M4.20763 3.01268L3.11125 9.59268L2.01487 3.01268C1.98858 2.85357 1.99722 2.69065 2.04021 2.53522C2.0832 2.3798 2.15951 2.23559 2.26383 2.11261C2.36815 1.98963 2.49798 1.89083 2.64432 1.82307C2.79066 1.75531 2.94999 1.72021 3.11125 1.72021C3.27251 1.72021 3.43185 1.75531 3.57818 1.82307C3.72452 1.89083 3.85435 1.98963 3.95867 2.11261C4.06299 2.23559 4.1393 2.3798 4.18229 2.53522C4.22528 2.69065 4.23392 2.85357 4.20763 3.01268Z" fill="#EE9401" stroke="#EE9401" stroke-width="3" stroke-linecap="round" stroke-linejoin="round"/>
<path d="M3.11133 15.2803C3.59458 15.2803 3.98633 14.8885 3.98633 14.4053C3.98633 13.922 3.59458 13.5303 3.11133 13.5303C2.62808 13.5303 2.23633 13.922 2.23633 14.4053C2.23633 14.8885 2.62808 15.2803 3.11133 15.2803Z" fill="#EE9401" stroke="#EE9401" stroke-width="2"/>
</svg>
