<svg width="155" height="31" viewBox="0 0 155 31" fill="none" xmlns="http://www.w3.org/2000/svg">
<path d="M90.9618 8.6003C94.9279 11.0978 95.2545 16.0721 95.2545 18.5064V29.8728H89.1054V18.5064C89.1054 17.9559 89.1054 17.1663 88.9314 16.3373H89.08L92.2614 10.8442L90.9618 8.6003Z" fill="#E7A90A"/>
<path d="M81.4728 7.49958C80.1074 7.85178 79.0137 8.42266 78.1434 9.15687L80.5129 9.15687L81.4728 7.49958Z" fill="#E7A90A"/>
<path d="M87.5774 13.8002C86.7331 13.0168 85.4222 12.458 83.3868 12.4194L82.4745 10.8442L84.1865 7.8883L87.6105 7.8883L89.3225 10.8442L87.6105 13.8002H87.5774Z" fill="#E7A90A"/>
<path d="M76.6443 9.15687V0.563721H70.4545V5.35115L73.809 5.35115L76.0132 9.15687H76.6443Z" fill="#E7A90A"/>
<path d="M80.5865 12.7497C77.9704 13.5192 76.9844 15.5175 76.7222 17.6059H76.5511L74.8391 14.6499L76.5511 11.694H79.9751L80.5865 12.7497Z" fill="#E7A90A"/>
<path d="M76.6443 20.143V29.8728H70.4545V23.9487H73.809L76.0132 20.143H76.6443Z" fill="#E7A90A"/>
<path d="M72.3396 21.4116H70.4545V16.3373H72.8247L74.0516 18.4557L72.3396 21.4116Z" fill="#E7A90A"/>
<path d="M70.4545 12.9626H72.8247L74.0516 10.8442L72.3396 7.8883L70.4545 7.8883V12.9626Z" fill="#E7A90A"/>
<path d="M19.0417 11.6111H19.3271V8.24436H25.5248V31H19.3271V27.8361H19.1232C17.5738 29.8237 14.9642 31 10.6421 31C1.06014 31 0 22.6847 0 19.6425C0 16.3163 1.01936 8.24436 10.6829 8.24436C14.9235 8.24436 17.4923 9.58293 19.0417 11.6111ZM12.477 25.7269C17.8185 25.7269 18.9194 23.0903 18.9194 19.6425C18.9194 16.5597 17.8185 13.5581 12.477 13.5581C6.52392 13.5581 5.9123 17.8577 5.9123 19.6425C5.9123 21.265 6.56469 25.7269 12.477 25.7269Z" fill="#AFB5BF"/>
<path d="M41.0054 8.24436C42.6364 8.24436 43.982 8.60942 45.0421 8.8528L44.0635 14.6533C43.4927 14.491 41.9025 14.1665 39.9453 14.1665C35.3378 14.1665 33.9922 17.736 33.9922 20.8188V31H27.7945V8.24436H33.9922V11.6111H34.3592C35.664 9.42068 37.0503 8.24436 41.0054 8.24436Z" fill="#AFB5BF"/>
<path d="M62.062 22.4818H68.1781C67.6888 27.9578 62.8367 31 56.272 31C49.5442 31 44.0804 27.1466 44.0804 19.6019C44.0804 12.2601 49.5442 8.20379 56.272 8.20379C62.8367 8.20379 67.6481 11.3677 68.1781 16.7625H62.1027C61.5727 15.0589 60.064 13.7609 56.272 13.7609C52.2353 13.7609 50.115 15.7484 50.115 19.6019C50.115 23.6582 52.2353 25.4835 56.272 25.4835C60.1863 25.4835 61.6134 24.0638 62.062 22.4818Z" fill="#AFB5BF"/>
<path d="M104.311 29.7324H98.1544V7.13903H104.311V29.7324ZM104.311 5.51652H98.1544V0H104.311V5.51652Z" fill="#E7A90A"/>
<path d="M125.234 7.13903H131.799L122.991 29.7324H113.532L104.724 7.13903H111.248L117.935 24.2565H118.547L125.234 7.13903Z" fill="#E7A90A"/>
<path d="M136.401 19.7946C136.85 22.8368 138.685 24.3376 142.681 24.3376C146.391 24.3376 148.226 23.3235 148.797 21.8227H154.791C154.179 26.7308 150.183 29.7324 142.681 29.7324C134.852 29.7324 130.408 25.8384 130.408 18.2532C130.408 10.8302 134.974 6.77396 142.681 6.77396C145.902 6.77396 148.512 7.58522 150.428 8.92378V8.88322C154.832 11.8849 155.239 16.6712 154.913 19.7946H136.401ZM142.681 12.1688C139.256 12.1688 137.38 13.4262 136.646 15.7383H148.715C148.226 14.0347 147.084 12.1688 142.681 12.1688Z" fill="#E7A90A"/>
</svg>
