<svg width="20" height="16" viewBox="0 0 20 16" fill="none" xmlns="http://www.w3.org/2000/svg">
<path d="M1.69143 2.292C3.09443 0.771 5.21743 0 8.00043 0H9.00043V2.819L8.19643 2.98C6.82643 3.254 5.87343 3.793 5.36343 4.584C5.09724 5.01009 4.94631 5.49803 4.92543 6H8.00043C8.26565 6 8.52 6.10536 8.70753 6.29289C8.89507 6.48043 9.00043 6.73478 9.00043 7V14C9.00043 15.103 8.10343 16 7.00043 16H1.00043C0.735212 16 0.480858 15.8946 0.293322 15.7071C0.105785 15.5196 0.000428456 15.2652 0.000428456 15V10L0.00342848 7.081C-0.00557152 6.97 -0.195572 4.34 1.69143 2.292ZM18.0004 16H12.0004C11.7352 16 11.4809 15.8946 11.2933 15.7071C11.1058 15.5196 11.0004 15.2652 11.0004 15V10L11.0034 7.081C10.9944 6.97 10.8044 4.34 12.6914 2.292C14.0944 0.771 16.2174 0 19.0004 0H20.0004V2.819L19.1964 2.98C17.8264 3.254 16.8734 3.793 16.3634 4.584C16.0972 5.01009 15.9463 5.49803 15.9254 6H19.0004C19.2656 6 19.52 6.10536 19.7075 6.29289C19.8951 6.48043 20.0004 6.73478 20.0004 7V14C20.0004 15.103 19.1034 16 18.0004 16Z" fill="#575858"/>
</svg>
