<svg width="368" height="47" viewBox="0 0 368 47" fill="none" xmlns="http://www.w3.org/2000/svg">
<path d="M35.352 29.976H45.464C44.568 39.96 35.864 47 23.384 47C10.52 47 0.728 39.256 0.728 24.28C0.728 9.56 10.52 1.496 23.384 1.496C35.864 1.496 44.824 8.984 45.464 18.584H35.352C33.944 13.72 30.616 11.416 23.384 11.416C15.704 11.416 10.392 15.384 10.392 24.28C10.392 33.176 15.704 37.08 23.384 37.08C30.872 37.08 34.136 34.392 35.352 29.976ZM67.696 10.456C78.64 10.456 87.728 16.28 87.728 28.76C87.728 41.368 78.64 47 67.696 47C56.816 47 47.728 41.176 47.728 28.76C47.728 16.408 56.816 10.456 67.696 10.456ZM67.696 38.168C73.84 38.168 78.192 35.224 78.192 28.76C78.192 22.104 73.84 19.352 67.696 19.352C61.616 19.352 57.264 21.976 57.264 28.76C57.264 35.48 61.616 38.168 67.696 38.168ZM112.624 11.096C127.792 11.096 128.176 23.832 128.176 29.08V47H118.512V29.08C118.512 26.264 119.088 19.48 109.808 19.48C101.36 19.48 100.144 24.856 100.144 29.72V47H90.4155V11.096H100.144V16.408H100.592C102.896 13.208 106.16 11.096 112.624 11.096ZM144.006 19.416V32.152V32.92C144.006 38.104 146.31 37.4 155.654 36.888V46.36C155.654 46.36 153.734 47 144.006 47C134.214 47 134.214 39 134.214 33.816V19.416H129.478V11.224H134.214V0.855999H144.006V11.224H155.654V19.416H144.006ZM186.177 16.408H186.625V11.096H196.353V47H186.625V42.008H186.305C183.873 45.144 179.777 47 172.993 47C157.953 47 156.289 33.88 156.289 29.08C156.289 23.832 157.889 11.096 173.057 11.096C179.713 11.096 183.745 13.208 186.177 16.408ZM175.873 38.68C184.257 38.68 185.985 34.52 185.985 29.08C185.985 24.216 184.257 19.48 175.873 19.48C166.529 19.48 165.569 26.264 165.569 29.08C165.569 31.64 166.593 38.68 175.873 38.68ZM226.89 33.56H236.49C235.722 42.2 228.106 47 217.802 47C207.242 47 198.666 40.92 198.666 29.016C198.666 17.432 207.242 11.032 217.802 11.032C228.106 11.032 235.658 16.024 236.49 24.536H226.954C226.122 21.848 223.754 19.8 217.802 19.8C211.466 19.8 208.138 22.936 208.138 29.016C208.138 35.416 211.466 38.296 217.802 38.296C223.946 38.296 226.186 36.056 226.89 33.56ZM251.694 19.416V32.152V32.92C251.694 38.104 253.998 37.4 263.342 36.888V46.36C263.342 46.36 261.422 47 251.694 47C241.902 47 241.902 39 241.902 33.816V19.416H237.166V11.224H241.902V0.855999H251.694V11.224H263.342V19.416H251.694Z" fill="#AFB5BF"/>
<path d="M317.875 25.24C317.875 20.376 317.875 2.2 317.875 2.2H328.051C328.051 2.2 328.051 20.248 328.051 26.392C328.051 32.472 328.051 47 307.827 47C287.539 47 287.603 33.24 287.603 26.328V2.2H297.331V25.24C297.331 31.96 297.587 38.104 307.763 38.104C318.067 38.104 317.875 30.104 317.875 25.24ZM349.988 25.24C358.116 26.456 367.332 27.864 367.332 36.376C367.332 45.272 360.932 47 349.924 47C341.796 47 336.228 45.528 333.348 42.648C330.852 40.152 330.852 37.144 330.916 35.288V34.584H340.9V34.904C340.9 37.976 343.204 39.384 349.668 39.384C353.572 39.384 357.284 38.872 357.284 36.504C357.284 33.816 353.828 33.304 349.924 32.856C349.412 32.792 348.9 32.728 348.388 32.664C338.084 31.32 331.684 29.016 331.684 21.848C331.684 16.856 334.564 10.904 348.388 10.904C363.236 10.904 366.372 17.496 366.372 23V23.32H356.452V23C356.452 20.184 354.02 18.648 348.388 18.648C342.948 18.648 341.796 20.632 341.796 21.72C341.796 23.32 342.884 24.216 349.156 25.176L349.988 25.24Z" fill="#E7A90A"/>
</svg>
