<svg width="34" height="34" viewBox="0 0 34 34" fill="none" xmlns="http://www.w3.org/2000/svg">
<circle cx="17" cy="17" r="17" fill="#E7A90A"/>
<path d="M7.068 10.482L15.943 19.358C16.2056 19.6207 16.5562 19.7767 16.9272 19.7957C17.2981 19.8148 17.6629 19.6955 17.951 19.461L18.065 19.358L26.934 10.488C26.9627 10.598 26.982 10.7103 26.992 10.825L27 11V23C27.0002 23.5046 26.8096 23.9906 26.4665 24.3605C26.1234 24.7305 25.6532 24.9572 25.15 24.995L25 25H9C8.49542 25.0002 8.00943 24.8096 7.63945 24.4665C7.26947 24.1234 7.04284 23.6532 7.005 23.15L7 23V11C7 10.88 7.01 10.7633 7.03 10.65L7.068 10.482ZM25 9C25.1213 9 25.2397 9.01033 25.355 9.031L25.525 9.07L17.005 17.59L8.482 9.068C8.59267 9.038 8.706 9.018 8.822 9.008L9 9H25Z" fill="white"/>
</svg>
