<svg width="26" height="25" viewBox="0 0 26 25" fill="none" xmlns="http://www.w3.org/2000/svg">
<path d="M13 0C10.4738 0.00461106 8.00356 0.714878 5.89009 2.04429C3.77663 3.37369 2.11118 5.26487 1.09661 7.48745C0.082046 9.71003 -0.237855 12.1681 0.175876 14.5622C0.589607 16.9564 1.71911 19.1833 3.42682 20.9717C4.64648 22.2418 6.12677 23.2555 7.77439 23.9488C9.42202 24.6421 11.2013 25 13 25C14.7987 25 16.578 24.6421 18.2256 23.9488C19.8732 23.2555 21.3535 22.2418 22.5732 20.9717C24.2809 19.1833 25.4104 16.9564 25.8241 14.5622C26.2379 12.1681 25.918 9.71003 24.9034 7.48745C23.8888 5.26487 22.2234 3.37369 20.1099 2.04429C17.9964 0.714878 15.5262 0.00461106 13 0ZM13 22.5233C10.3019 22.5193 7.71054 21.5101 5.77127 19.7079C6.36004 18.3309 7.36163 17.1531 8.64876 16.3242C9.93589 15.4954 11.4505 15.0528 13 15.0528C14.5495 15.0528 16.0641 15.4954 17.3512 16.3242C18.6384 17.1531 19.64 18.3309 20.2287 19.7079C18.2895 21.5101 15.6981 22.5193 13 22.5233ZM10.3951 10.0103C10.3951 9.51538 10.5478 9.03153 10.8341 8.61998C11.1203 8.20844 11.5271 7.88767 12.0031 7.69826C12.4791 7.50884 13.0029 7.45928 13.5082 7.55585C14.0135 7.65241 14.4777 7.89076 14.842 8.24075C15.2063 8.59074 15.4544 9.03666 15.5549 9.52212C15.6554 10.0076 15.6038 10.5108 15.4067 10.968C15.2095 11.4253 14.8756 11.8162 14.4472 12.0912C14.0188 12.3662 13.5152 12.5129 13 12.5129C12.3091 12.5129 11.6465 12.2493 11.158 11.7799C10.6695 11.3106 10.3951 10.6741 10.3951 10.0103ZM22.0001 17.5181C20.8364 15.6058 19.0453 14.1184 16.9074 13.2887C17.5706 12.5663 18.0027 11.6754 18.1519 10.7229C18.3011 9.77037 18.161 8.79673 17.7485 7.91881C17.336 7.04088 16.6685 6.29596 15.8262 5.77342C14.984 5.25089 14.0026 4.97295 13 4.97295C11.9974 4.97295 11.016 5.25089 10.1738 5.77342C9.33147 6.29596 8.66403 7.04088 8.2515 7.91881C7.83898 8.79673 7.69891 9.77037 7.8481 10.7229C7.99729 11.6754 8.4294 12.5663 9.09258 13.2887C6.95469 14.1184 5.16362 15.6058 3.99991 17.5181C3.07247 16.0004 2.58245 14.2728 2.58021 12.5129C2.58021 9.85802 3.67801 7.31185 5.6321 5.43455C7.58619 3.55725 10.2365 2.50259 13 2.50259C15.7635 2.50259 18.4138 3.55725 20.3679 5.43455C22.322 7.31185 23.4198 9.85802 23.4198 12.5129C23.4176 14.2728 22.9275 16.0004 22.0001 17.5181Z" fill="#575858"/>
</svg>
