<svg width="21" height="21" viewBox="0 0 21 21" fill="none" xmlns="http://www.w3.org/2000/svg">
<path d="M19.7154 10.205L20.9949 10.164C20.9887 9.96821 20.9377 9.77644 20.8458 9.60345C20.7539 9.43047 20.6235 9.28088 20.4647 9.16619C20.3059 9.05151 20.1228 8.9748 19.9297 8.94195C19.7366 8.9091 19.5385 8.921 19.3507 8.97674L19.7154 10.205ZM10.796 1.28562L12.0233 1.64927C12.079 1.4614 12.0909 1.26323 12.058 1.07004C12.0251 0.876843 11.9483 0.693779 11.8335 0.534946C11.7187 0.376112 11.569 0.245747 11.3959 0.153892C11.2227 0.0620367 11.0309 0.0111423 10.835 0.00512884L10.796 1.28562ZM19.3507 8.97674C18.8056 9.13755 18.2391 9.21931 17.6707 9.21952V11.7805C18.4861 11.7805 19.2971 11.6632 20.0791 11.4322L19.3507 8.97674ZM17.6707 9.21952C16.1085 9.21952 14.6103 8.59894 13.5057 7.4943C12.4011 6.38967 11.7805 4.89146 11.7805 3.32927H9.21951C9.21951 5.57068 10.1099 7.72028 11.6948 9.30519C13.2797 10.8901 15.4293 11.7805 17.6707 11.7805V9.21952ZM11.7805 3.32927C11.7805 2.74332 11.8655 2.17991 12.0233 1.64927L9.56781 0.921958C9.33693 1.70356 9.21964 2.51429 9.21951 3.32927H11.7805ZM10.5 2.56098C10.5847 2.56098 10.67 2.56235 10.7561 2.56508L10.836 0.00512884C10.724 0.0015845 10.612 -0.000123044 10.5 6.89115e-06V2.56098ZM2.56098 10.5C2.56098 8.39444 3.39741 6.37512 4.88626 4.88627C6.37512 3.39741 8.39444 2.56098 10.5 2.56098V6.89115e-06C4.70195 6.89115e-06 0 4.70196 0 10.5H2.56098ZM10.5 18.439C8.39444 18.439 6.37512 17.6026 4.88626 16.1137C3.39741 14.6249 2.56098 12.6056 2.56098 10.5H0C0 16.298 4.70195 21 10.5 21V18.439ZM18.439 10.5C18.439 12.6056 17.6026 14.6249 16.1137 16.1137C14.6249 17.6026 12.6056 18.439 10.5 18.439V21C16.298 21 21 16.298 21 10.5H18.439ZM18.4349 10.2439C18.4377 10.33 18.439 10.4153 18.439 10.5H21C21 10.3873 20.9983 10.2753 20.9949 10.164L18.4349 10.2439Z" fill="#E7A90A"/>
</svg>
