<svg width="39" height="48" viewBox="0 0 39 48" fill="none" xmlns="http://www.w3.org/2000/svg">
<path d="M9.94563 30C9.4779 30 9.16269 30.0471 9 30.0942V33.1756C9.19319 33.2226 9.43468 33.2357 9.76769 33.2357C10.9853 33.2357 11.7352 32.6027 11.7352 31.5328C11.7352 30.5755 11.0895 30 9.94563 30ZM18.8096 30.0314C18.3012 30.0314 17.9708 30.0785 17.775 30.1256V36.9528C17.9708 36.9998 18.286 36.9998 18.5707 36.9998C20.6475 37.0155 21.9999 35.8384 21.9999 33.3482C22.0151 31.1771 20.7822 30.0314 18.8096 30.0314Z" fill="#575858"/>
<path d="M24.375 0H4.875C3.58207 0 2.34209 0.505713 1.42785 1.40589C0.513614 2.30606 0 3.52696 0 4.8V43.2C0 44.473 0.513614 45.6939 1.42785 46.5941C2.34209 47.4943 3.58207 48 4.875 48H34.125C35.4179 48 36.6579 47.4943 37.5721 46.5941C38.4864 45.6939 39 44.473 39 43.2V14.4L24.375 0ZM13.4014 34.056C12.6482 34.752 11.5367 35.064 10.2424 35.064C9.99137 35.0687 9.74037 35.0542 9.49163 35.0208V38.4432H7.3125V28.9968C8.29597 28.8528 9.28962 28.787 10.2838 28.8C11.6415 28.8 12.6068 29.0544 13.2576 29.5656C13.8767 30.0504 14.2959 30.8448 14.2959 31.7808C14.2935 32.7216 13.9766 33.516 13.4014 34.056ZM22.6809 37.308C21.6572 38.1456 20.0996 38.544 18.1959 38.544C17.0552 38.544 16.2484 38.472 15.6999 38.4V28.9992C16.6838 28.8583 17.6771 28.7917 18.6712 28.8C20.5164 28.8 21.7157 29.1264 22.6517 29.8224C23.6633 30.5616 24.297 31.74 24.297 33.432C24.297 35.2632 23.6169 36.528 22.6809 37.308ZM31.6875 30.648H27.9533V32.8344H31.4437V34.596H27.9533V38.4456H25.7449V28.872H31.6875V30.648ZM24.375 16.8H21.9375V4.8L34.125 16.8H24.375Z" fill="#575858"/>
</svg>
