<svg width="34" height="34" viewBox="0 0 34 34" fill="none" xmlns="http://www.w3.org/2000/svg">
<circle cx="17" cy="17" r="17" fill="#E7A90A"/>
<path d="M20.5569 19.906L20.1019 20.359C20.1019 20.359 19.0189 21.435 16.0639 18.497C13.1089 15.559 14.1919 14.483 14.1919 14.483L14.4779 14.197C15.1849 13.495 15.2519 12.367 14.6349 11.543L13.3749 9.85998C12.6109 8.83998 11.1359 8.70498 10.2609 9.57498L8.69086 11.135C8.25786 11.567 7.96786 12.125 8.00286 12.745C8.09286 14.332 8.81086 17.745 12.8149 21.727C17.0619 25.949 21.0469 26.117 22.6759 25.965C23.1919 25.917 23.6399 25.655 24.0009 25.295L25.4209 23.883C26.3809 22.93 26.1109 21.295 24.8829 20.628L22.9729 19.589C22.1669 19.152 21.1869 19.28 20.5569 19.906Z" fill="white"/>
</svg>
