<svg width="48" height="48" viewBox="0 0 48 48" fill="none" xmlns="http://www.w3.org/2000/svg">
<path d="M5.33333 48C3.86667 48 2.61156 47.4782 1.568 46.4347C0.524445 45.3911 0.00177778 44.1351 0 42.6667V5.33333C0 3.86667 0.522667 2.61156 1.568 1.568C2.61333 0.524445 3.86844 0.00177778 5.33333 0H42.6667C44.1333 0 45.3893 0.522667 46.4347 1.568C47.48 2.61333 48.0018 3.86844 48 5.33333V42.6667C48 44.1333 47.4782 45.3893 46.4347 46.4347C45.3911 47.48 44.1351 48.0018 42.6667 48H5.33333ZM8 37.3333H40L30 24L22 34.6667L16 26.6667L8 37.3333Z" fill="#575858"/>
</svg>
