<svg width="23" height="24" viewBox="0 0 23 24" fill="none" xmlns="http://www.w3.org/2000/svg">
<path d="M17.0751 15.3806C16.8369 15.1396 16.512 15.0039 16.1731 15.0039H15.8141C15.7138 15.0039 15.6175 14.9648 15.5456 14.8948C15.4003 14.7534 15.3905 14.5239 15.5157 14.3643C16.7121 12.8388 17.3657 10.9467 17.3642 8.9938C17.3642 7.2768 16.8599 5.59836 15.9151 4.17073C14.9702 2.7431 13.6273 1.6304 12.0561 0.973328C10.4849 0.316261 8.756 0.144343 7.08803 0.479313C5.42005 0.814282 3.88791 1.6411 2.68537 2.8552C1.48282 4.0693 0.663877 5.61616 0.332095 7.30016C0.000313446 8.98417 0.170596 10.7297 0.821409 12.316C1.47222 13.9023 2.57434 15.2581 3.98838 16.212C5.40242 17.166 7.06489 17.6751 8.76554 17.6751C10.7659 17.6751 12.6146 16.98 14.0814 15.811C14.2408 15.684 14.472 15.6941 14.6128 15.8415C14.6806 15.9126 14.7185 16.007 14.7185 16.1053V16.4725C14.7185 16.8151 14.8539 17.1438 15.0952 17.3869L20.3369 22.6683C20.8855 23.2212 21.7797 23.2207 22.3278 22.6674C22.8685 22.1214 22.869 21.2419 22.3288 20.6954L17.0751 15.3806ZM8.76554 15.0039C5.47159 15.0039 2.81262 12.3194 2.81262 8.9938C2.81262 5.6682 5.47159 2.98367 8.76554 2.98367C12.0595 2.98367 14.7185 5.6682 14.7185 8.9938C14.7185 12.3194 12.0595 15.0039 8.76554 15.0039Z" fill="#AFB5BF"/>
</svg>
