<svg width="637" height="47" viewBox="0 0 637 47" fill="none" xmlns="http://www.w3.org/2000/svg">
<path d="M21.784 19.864C31.832 21.528 43.288 23 43.288 33.112C43.288 44.248 35.864 47 22.744 47C0.664 47 0.728 34.776 0.728 30.488C2.712 30.488 5.208 30.488 10.712 30.488C10.712 37.208 16.664 38.296 22.488 38.296C29.848 38.296 32.92 36.568 32.92 33.112C32.92 30.104 29.848 29.528 21.08 28.248C7.64 26.264 1.624 23.512 1.624 15.32C1.624 8.984 6.296 1.688 20.952 1.688C38.36 1.688 41.816 11.416 41.816 18.2C41.816 18.2 35.032 18.2 31.576 18.2C31.576 15.128 30.232 10.52 20.952 10.52C13.4 10.52 11.672 13.208 11.672 15.384C11.672 17.752 14.296 18.648 21.784 19.864ZM84.558 31.32H55.886C56.59 36.12 59.47 38.488 65.742 38.488C71.566 38.488 74.446 36.888 75.342 34.52H84.75C83.79 42.264 77.518 47 65.742 47C53.454 47 46.478 40.856 46.478 28.888C46.478 17.176 53.646 10.776 65.742 10.776C70.798 10.776 74.894 12.056 77.902 14.168V14.104C84.814 18.84 85.454 26.392 84.942 31.32H84.558ZM65.742 19.288C60.366 19.288 57.422 21.272 56.27 24.92H75.214C74.446 22.232 72.654 19.288 65.742 19.288ZM117.24 16.408H117.688V11.096H127.416V47H117.688V42.008H117.368C114.936 45.144 110.84 47 104.056 47C89.0155 47 87.3515 33.88 87.3515 29.08C87.3515 23.832 88.9515 11.096 104.12 11.096C110.776 11.096 114.808 13.208 117.24 16.408ZM106.936 38.68C115.32 38.68 117.048 34.52 117.048 29.08C117.048 24.216 115.32 19.48 106.936 19.48C97.5915 19.48 96.6315 26.264 96.6315 29.08C96.6315 31.64 97.6555 38.68 106.936 38.68ZM151.714 11.096C154.274 11.096 156.386 11.672 158.05 12.056L156.514 21.208C155.618 20.952 153.122 20.44 150.05 20.44C142.818 20.44 140.706 26.072 140.706 30.936V47H130.978V11.096H140.706V16.408H141.282C143.33 12.952 145.506 11.096 151.714 11.096ZM184.765 33.56H194.365C193.597 42.2 185.981 47 175.677 47C165.117 47 156.541 40.92 156.541 29.016C156.541 17.432 165.117 11.032 175.677 11.032C185.981 11.032 193.533 16.024 194.365 24.536H184.829C183.997 21.848 181.629 19.8 175.677 19.8C169.341 19.8 166.013 22.936 166.013 29.016C166.013 35.416 169.341 38.296 175.677 38.296C181.821 38.296 184.061 36.056 184.765 33.56ZM219.95 11.096C235.182 11.096 236.142 23.832 236.142 29.08V47H226.478V29.08C226.478 26.264 226.478 19.48 217.134 19.48C208.75 19.48 206.894 24.856 206.894 29.72V47H197.166V0.791996H206.894V16.408H207.342C209.646 13.208 213.55 11.096 219.95 11.096ZM275.006 19.416V32.152V32.92C275.006 38.104 277.31 37.4 286.654 36.888V46.36C286.654 46.36 284.734 47 275.006 47C265.214 47 265.214 39 265.214 33.816V19.416H260.478V11.224H265.214V0.855999H275.006V11.224H286.654V19.416H275.006ZM312.262 11.096C327.494 11.096 328.454 23.832 328.454 29.08V47H318.79V29.08C318.79 26.264 318.79 19.48 309.446 19.48C301.062 19.48 299.206 24.856 299.206 29.72V47H289.478V0.791996H299.206V16.408H299.654C301.958 13.208 305.862 11.096 312.262 11.096ZM369.121 31.32H340.449C341.153 36.12 344.033 38.488 350.305 38.488C356.129 38.488 359.009 36.888 359.905 34.52H369.312C368.353 42.264 362.081 47 350.305 47C338.017 47 331.041 40.856 331.041 28.888C331.041 17.176 338.209 10.776 350.305 10.776C355.361 10.776 359.457 12.056 362.465 14.168V14.104C369.377 18.84 370.017 26.392 369.505 31.32H369.121ZM350.305 19.288C344.929 19.288 341.985 21.272 340.833 24.92H359.777C359.009 22.232 357.217 19.288 350.305 19.288ZM423.74 16.408H424.188V11.096H433.916V47H424.188V42.008H423.868C421.436 45.144 417.34 47 410.556 47C395.516 47 393.852 33.88 393.852 29.08C393.852 23.832 395.452 11.096 410.62 11.096C417.276 11.096 421.308 13.208 423.74 16.408ZM413.436 38.68C421.82 38.68 423.548 34.52 423.548 29.08C423.548 24.216 421.82 19.48 413.436 19.48C404.092 19.48 403.132 26.264 403.132 29.08C403.132 31.64 404.156 38.68 413.436 38.68ZM458.214 11.096C460.774 11.096 462.886 11.672 464.55 12.056L463.014 21.208C462.118 20.952 459.622 20.44 456.55 20.44C449.318 20.44 447.206 26.072 447.206 30.936V47H437.478V11.096H447.206V16.408H447.782C449.83 12.952 452.006 11.096 458.214 11.096ZM491.265 33.56H500.865C500.097 42.2 492.481 47 482.177 47C471.617 47 463.041 40.92 463.041 29.016C463.041 17.432 471.617 11.032 482.177 11.032C492.481 11.032 500.033 16.024 500.865 24.536H491.329C490.497 21.848 488.129 19.8 482.177 19.8C475.841 19.8 472.513 22.936 472.513 29.016C472.513 35.416 475.841 38.296 482.177 38.296C488.321 38.296 490.561 36.056 491.265 33.56Z" fill="#AFB5BF"/>
<path d="M526.45 11.096C541.682 11.096 542.642 23.832 542.642 29.08V47H532.978V29.08C532.978 26.264 532.978 19.48 523.634 19.48C515.25 19.48 513.394 24.856 513.394 29.72V47H503.666V0.791996H513.394V16.408H513.842C516.146 13.208 520.05 11.096 526.45 11.096ZM556.455 47H546.791V11.352H556.455V47ZM556.455 8.792H546.791V0.0879974H556.455V8.792ZM589.295 11.352H599.599L585.775 47H570.927L557.103 11.352H567.343L577.839 38.36H578.799L589.295 11.352ZM635.496 31.32H606.824C607.528 36.12 610.408 38.488 616.68 38.488C622.504 38.488 625.384 36.888 626.28 34.52H635.688C634.728 42.264 628.456 47 616.68 47C604.392 47 597.416 40.856 597.416 28.888C597.416 17.176 604.584 10.776 616.68 10.776C621.736 10.776 625.832 12.056 628.84 14.168V14.104C635.752 18.84 636.392 26.392 635.88 31.32H635.496ZM616.68 19.288C611.304 19.288 608.36 21.272 607.208 24.92H626.152C625.384 22.232 623.592 19.288 616.68 19.288Z" fill="#E7A90A"/>
</svg>
