<svg width="11" height="11" viewBox="0 0 11 11" fill="none" xmlns="http://www.w3.org/2000/svg">
<path d="M5.50211 4.00235C5.11401 4.00235 4.75057 4.14496 4.47539 4.40559C4.20151 4.66623 4.04965 5.01046 4.04965 5.37806C4.04965 5.74565 4.20151 6.08989 4.47539 6.35052C4.75057 6.60993 5.11401 6.75377 5.50211 6.75377C5.89021 6.75377 6.25365 6.60993 6.52883 6.35052C6.80271 6.08989 6.95458 5.74565 6.95458 5.37806C6.95458 5.01046 6.80271 4.66623 6.52883 4.40559C6.39443 4.27731 6.23445 4.17561 6.0582 4.10638C5.88194 4.03716 5.69292 4.00179 5.50211 4.00235ZM10.8538 6.89761L10.0049 6.21037C10.0451 5.97678 10.0659 5.73828 10.0659 5.501C10.0659 5.26372 10.0451 5.02399 10.0049 4.79163L10.8538 4.10439C10.9179 4.05239 10.9638 3.98314 10.9854 3.90584C11.0069 3.82853 11.0031 3.74685 10.9745 3.67164L10.9628 3.63967C10.7292 3.0209 10.3791 2.44733 9.92959 1.94677L9.90623 1.92095C9.85164 1.86016 9.77889 1.81646 9.69756 1.79561C9.61623 1.77476 9.53014 1.77774 9.45063 1.80416L8.39665 2.15946C8.00725 1.85703 7.57372 1.61852 7.10385 1.45255L6.90006 0.408779C6.88468 0.330149 6.84441 0.25781 6.7846 0.201375C6.72478 0.144939 6.64825 0.107078 6.56517 0.0928205L6.53013 0.0866735C5.85517 -0.0288912 5.14386 -0.0288912 4.4689 0.0866735L4.43386 0.0928205C4.35078 0.107078 4.27425 0.144939 4.21443 0.201375C4.15462 0.25781 4.11435 0.330149 4.09897 0.408779L3.89389 1.45747C3.42846 1.62475 2.99488 1.86268 2.61017 2.16192L1.5484 1.80416C1.46892 1.77753 1.38276 1.77445 1.30138 1.79531C1.22 1.81617 1.14725 1.85999 1.0928 1.92095L1.06944 1.94677C0.620702 2.44786 0.270732 3.02128 0.0362286 3.63967L0.0245466 3.67164C-0.0338634 3.82531 0.0141626 3.99743 0.145261 4.10439L1.00454 4.79901C0.964299 5.03014 0.944829 5.26618 0.944829 5.49977C0.944829 5.73582 0.964299 5.97186 1.00454 6.20053L0.147857 6.89515C0.0837299 6.94715 0.0378335 7.0164 0.0162705 7.0937C-0.0052925 7.17101 -0.00150044 7.25269 0.0271426 7.3279L0.0388246 7.35987C0.273763 7.97826 0.620329 8.54994 1.07203 9.05277L1.0954 9.07858C1.14998 9.13938 1.22274 9.18308 1.30407 9.20393C1.3854 9.22478 1.47149 9.2218 1.551 9.19538L2.61276 8.83762C2.99957 9.13883 3.4305 9.37733 3.89648 9.54207L4.10157 10.5908C4.11694 10.6694 4.15721 10.7417 4.21703 10.7982C4.27685 10.8546 4.35338 10.8925 4.43645 10.9067L4.4715 10.9129C5.1531 11.029 5.85112 11.029 6.53272 10.9129L6.56777 10.9067C6.65085 10.8925 6.72738 10.8546 6.78719 10.7982C6.84701 10.7417 6.88728 10.6694 6.90266 10.5908L7.10644 9.54699C7.57632 9.37979 8.00985 9.14251 8.39925 8.84008L9.45323 9.19538C9.53271 9.222 9.61886 9.22509 9.70024 9.20423C9.78162 9.18337 9.85437 9.13955 9.90882 9.07858L9.93219 9.05277C10.3839 8.54748 10.7305 7.97826 10.9654 7.35987L10.9771 7.3279C11.0329 7.17546 10.9849 7.00457 10.8538 6.89761ZM5.50211 7.53936C4.24175 7.53936 3.22023 6.57182 3.22023 5.37806C3.22023 4.1843 4.24175 3.21675 5.50211 3.21675C6.76247 3.21675 7.784 4.1843 7.784 5.37806C7.784 6.57182 6.76247 7.53936 5.50211 7.53936Z" fill="#545760"/>
</svg>
