<svg width="58" height="42" viewBox="0 0 58 42" fill="none" xmlns="http://www.w3.org/2000/svg">
<path d="M26.25 42H14.4375C10.4563 42 7.05512 40.6219 4.23412 37.8656C1.41312 35.1094 0.00175 31.7406 0 27.7594C0 24.3469 1.02812 21.3063 3.08437 18.6375C5.14062 15.9688 7.83125 14.2625 11.1562 13.5187C12.25 9.49375 14.4375 6.23438 17.7188 3.74063C21 1.24688 24.7188 0 28.875 0C33.9938 0 38.3364 1.78325 41.9029 5.34975C45.4694 8.91625 47.2518 13.258 47.25 18.375C50.2687 18.725 52.7739 20.027 54.7654 22.281C56.7569 24.535 57.7518 27.1705 57.75 30.1875C57.75 33.4688 56.602 36.2583 54.306 38.556C52.01 40.8537 49.2205 42.0018 45.9375 42H31.5V23.2313L35.7 27.3L39.375 23.625L28.875 13.125L18.375 23.625L22.05 27.3L26.25 23.2313V42Z" fill="#AFB5BF"/>
</svg>
